<svg width="25" height="24" viewBox="0 0 25 24" fill="none" xmlns="http://www.w3.org/2000/svg">
<path fill-rule="evenodd" clip-rule="evenodd" d="M11.8462 6.56481C11.9594 6.66462 12.1104 6.7103 12.26 6.68997C13.2611 6.50537 14.1566 5.95234 14.77 5.13997C15.3664 4.38728 15.7156 3.46873 15.77 2.50997C15.7745 2.35109 15.7046 2.19921 15.5811 2.09921C15.4576 1.9992 15.2945 1.96251 15.14 1.99997C14.1751 2.25193 13.3121 2.79697 12.67 3.55997C12.0599 4.29704 11.7086 5.21395 11.67 6.16997C11.6686 6.32091 11.7329 6.465 11.8462 6.56481ZM19.2025 9.22549C18.6109 9.78066 17.68 10.6542 17.68 12.51C17.6661 14.1669 18.576 15.6938 20.04 16.47C20.2211 16.5518 20.3382 16.7313 20.34 16.93C20.34 17 18.24 22 15.72 22C15.1683 22 14.8006 21.8261 14.3979 21.6357C13.91 21.405 13.3705 21.15 12.39 21.15C11.4236 21.15 10.8828 21.3977 10.3851 21.6257C9.96094 21.82 9.56815 22 8.97001 22C6.65001 22 3.50001 17.14 3.50001 12.75C3.46015 11.51 3.76846 10.2837 4.39001 9.20997C5.26661 7.7243 6.82762 6.77494 8.55001 6.67997C9.36168 6.67997 10.0261 6.91887 10.6546 7.14484C11.2186 7.34761 11.7536 7.53997 12.34 7.53997C12.8999 7.53997 13.3517 7.36465 13.8473 7.17233C14.4495 6.9387 15.1163 6.67997 16.12 6.67997C17.95 6.67997 19.68 7.99997 19.68 8.58997C19.68 8.77744 19.4781 8.96693 19.2025 9.22549Z" fill="black"/>
</svg>
