<svg width="1191" height="82" viewBox="0 0 1191 82" fill="none" xmlns="http://www.w3.org/2000/svg">
<g opacity="0.5" clip-path="url(#clip0_155_245)">
<path d="M25 66C38.8075 66 50 54.8075 50 41V23.5C50 21.5109 49.2099 19.6032 47.8033 18.1967C46.3968 16.7902 44.4892 16 42.5 16H26.25V26.9675C26.25 29.47 26.4025 32.0625 27.715 34.1925C28.6546 35.719 29.9116 37.0256 31.4006 38.0235C32.8897 39.0214 34.5759 39.6874 36.345 39.9762L36.8238 40.0537C37.0211 40.1212 37.1925 40.2487 37.3138 40.4184C37.4351 40.5881 37.5003 40.7914 37.5003 41C37.5003 41.2086 37.4351 41.4119 37.3138 41.5816C37.1925 41.7513 37.0211 41.8788 36.8238 41.9463L36.345 42.0238C33.7602 42.446 31.3734 43.6695 29.5214 45.5214C27.6695 47.3733 26.446 49.7602 26.0238 52.345L25.9463 52.8237C25.8788 53.0211 25.7513 53.1925 25.5816 53.3138C25.412 53.4351 25.2086 53.5003 25 53.5003C24.7914 53.5003 24.5881 53.4351 24.4184 53.3138C24.2487 53.1925 24.1212 53.0211 24.0538 52.8237L23.9763 52.345C23.6874 50.5759 23.0214 48.8897 22.0234 47.4007C21.0255 45.9117 19.719 44.6547 18.1925 43.715C16.0625 42.4025 13.47 42.25 10.9675 42.25H0.0300293C0.683779 55.4762 11.6125 66 25 66Z" fill="#1D1D1E"/>
<path d="M0 39.75H10.9675C13.47 39.75 16.0625 39.5975 18.1925 38.285C19.8575 37.2591 21.2591 35.8575 22.285 34.1925C23.5975 32.0625 23.75 29.47 23.75 26.9675V16H7.5C5.51088 16 3.60322 16.7902 2.1967 18.1967C0.790176 19.6032 0 21.5109 0 23.5L0 39.75ZM58.0688 18.5C58.0688 19.163 57.8054 19.7989 57.3365 20.2678C56.8677 20.7366 56.2318 21 55.5688 21C54.9057 21 54.2698 20.7366 53.801 20.2678C53.3321 19.7989 53.0688 19.163 53.0688 18.5C53.0688 17.837 53.3321 17.2011 53.801 16.7322C54.2698 16.2634 54.9057 16 55.5688 16C56.2318 16 56.8677 16.2634 57.3365 16.7322C57.8054 17.2011 58.0688 17.837 58.0688 18.5ZM264.639 31.13C271.628 31.13 275 36.0112 275 41.665V52.2838H267.686V42.925C267.686 40.3625 266.751 38.2475 264.07 38.2475C261.389 38.2475 260.495 40.3625 260.495 42.925V52.2825H253.181V42.925C253.181 40.3625 252.288 38.2475 249.605 38.2475C246.924 38.2475 245.989 40.3625 245.989 42.925V52.2825H238.676V41.6637C238.676 36.01 242.048 31.1287 249.036 31.1287C252.856 31.1287 255.619 32.6337 256.879 35.115C258.219 32.6337 261.145 31.1275 264.639 31.1275V31.13ZM225.534 45.775C227.89 45.775 228.906 43.6188 228.906 41.055V31.9425H236.219V41.95C236.219 47.93 232.725 52.8937 225.534 52.8937C218.341 52.8937 214.848 47.9312 214.848 41.95V31.9425H222.161V41.055C222.161 43.6175 223.176 45.775 225.534 45.775ZM204.094 52.9338C199.502 52.9338 196.536 51.3475 194.789 48.2562L200.071 45.2863C200.803 46.5875 201.899 47.2387 203.727 47.2387C205.231 47.2387 205.921 46.71 205.921 46.0588C205.921 43.5775 195.195 46.1 195.195 38.2087C195.195 34.3838 198.445 31.2925 203.971 31.2925C208.806 31.2925 211.447 33.6513 212.626 35.93L207.344 38.94C206.898 37.72 205.515 36.9875 204.134 36.9875C203.078 36.9875 202.509 37.435 202.509 38.045C202.509 40.5675 213.235 38.2487 213.235 45.8962C213.235 50.1675 209.05 52.9338 204.094 52.9338ZM178.541 61.64H171.227V42.0725C171.227 35.8475 175.9 31.3325 182.401 31.3325C188.74 31.3325 193.575 36.1737 193.575 42.0725C193.575 48.5812 189.268 52.8937 182.807 52.8937C181.304 52.8937 179.801 52.4463 178.541 51.7537V61.64ZM182.401 46.0187C184.718 46.0187 186.261 44.2287 186.261 42.1125C186.261 39.9575 184.718 38.2075 182.401 38.2075C180.085 38.2075 178.541 39.9575 178.541 42.1138C178.541 44.2288 180.085 46.0187 182.401 46.0187ZM163.901 29.7875C161.504 29.7875 159.514 27.7937 159.514 25.3938C159.514 22.9938 161.504 21 163.901 21C166.299 21 168.29 22.9938 168.29 25.3938C168.29 27.7937 166.299 29.7875 163.901 29.7875ZM160.245 31.9425H167.559V52.2838H160.245V31.9425ZM146.212 52.8937C139.874 52.8937 135.039 48.0125 135.039 42.0725C135.039 36.1737 139.874 31.2925 146.212 31.2925C152.551 31.2925 157.386 36.1737 157.386 42.0725C157.386 48.0125 152.551 52.8937 146.212 52.8937ZM146.212 46.0187C148.529 46.0187 150.072 44.2287 150.072 42.1125C150.072 39.9575 148.529 38.1675 146.212 38.1675C143.896 38.1675 142.353 39.9575 142.353 42.1125C142.353 44.2287 143.896 46.0187 146.212 46.0187ZM121.229 62.25C116.191 62.25 112.534 60.0125 110.665 56.025L116.719 52.7712C117.369 54.155 118.588 55.5788 121.106 55.5788C123.749 55.5788 125.495 53.91 125.699 50.9813C124.724 51.8363 123.179 52.4862 120.864 52.4862C115.215 52.4862 110.664 48.1338 110.664 42.0312C110.664 36.1338 115.5 31.3325 121.839 31.3325C128.34 31.3325 133.013 35.8487 133.013 42.0725V50.1275C133.013 57.45 127.933 62.25 121.229 62.25ZM121.716 45.6125C123.91 45.6125 125.576 44.1062 125.576 41.8687C125.576 39.6725 123.911 38.2075 121.716 38.2075C119.562 38.2075 117.856 39.6725 117.856 41.87C117.856 44.1075 119.562 45.6112 121.716 45.6112V45.6125ZM98.2588 52.8937C91.92 52.8937 87.0837 48.0125 87.0837 42.0725C87.0837 36.1737 91.92 31.2925 98.2588 31.2925C104.596 31.2925 109.432 36.1737 109.432 42.0725C109.432 48.0125 104.598 52.8937 98.2588 52.8937ZM98.2588 46.0187C100.575 46.0187 102.119 44.2287 102.119 42.1125C102.119 39.9575 100.575 38.1675 98.2588 38.1675C95.9425 38.1675 94.3987 39.9575 94.3987 42.1125C94.3987 44.2287 95.9425 46.0187 98.2588 46.0187ZM73.7663 24.825V45.3675H85.875V52.2838H72.75C68.1188 52.2838 66.25 49.8425 66.25 45.9775V24.825H73.7663Z" fill="#1D1D1E"/>
</g>
<g opacity="0.5">
<path d="M427.363 42.0026C427.407 41.1484 427.407 40.2926 427.363 39.4385H378.71C378.7 39.6513 378.691 39.8654 378.686 40.0795H368.494L368.488 40.4H363V41.041H368.487L368.495 41.3615H378.686C378.691 41.5769 378.699 41.7897 378.712 42.0026H392.679C392.626 41.5773 392.6 41.1491 392.6 40.7205H413.113C413.113 41.1551 413.087 41.5833 413.033 42.0026H427.363ZM427.262 38.1564H412.791C412.679 37.7202 412.537 37.2919 412.368 36.8744H393.349C393.181 37.2897 393.038 37.7167 392.926 38.1564H378.81C378.833 37.9423 378.859 37.7282 378.887 37.5154H368.695L368.738 37.2026H363V36.5615H368.84L368.899 36.2333H379.091C379.129 36.0192 379.173 35.8051 379.219 35.5923H426.855C427.035 36.4321 427.172 37.2872 427.262 38.1564ZM426.544 34.3103H410.864C410.494 33.8487 410.086 33.4198 409.642 33.0282H396.073C395.631 33.4205 395.221 33.8487 394.851 34.3103H379.531C379.588 34.0962 379.65 33.8821 379.714 33.6692H369.522L369.635 33.309H363V32.6667H369.849L369.949 32.3859H380.141C380.218 32.1705 380.3 31.9577 380.385 31.7449H425.688C426.019 32.5782 426.305 33.4359 426.544 34.3103ZM425.137 30.4641H380.936C381.036 30.2487 381.138 30.0359 381.245 29.8231H371.054L371.235 29.4692H363V28.8282H371.582L371.745 28.541H381.937C382.062 28.3256 382.19 28.1115 382.321 27.9H423.753C424.263 28.7231 424.727 29.5795 425.137 30.4641ZM378.81 43.2846H427.263C427.172 44.1538 427.035 45.0103 426.855 45.8487H411.742C411.979 45.4385 412.19 45.0103 412.369 44.5667H393.346C393.526 45.0103 393.735 45.4385 393.972 45.8487H379.218C379.172 45.6356 379.13 45.4219 379.09 45.2077H368.899C368.878 45.095 368.858 44.9822 368.838 44.8692H363V44.2282H368.737C368.722 44.1274 368.708 44.0266 368.695 43.9256H378.887C378.859 43.7123 378.833 43.4986 378.81 43.2846ZM379.529 47.1308H426.542C426.305 48.0064 426.019 48.8615 425.688 49.6949H407.827C408.477 49.3343 409.085 48.9044 409.642 48.4128H396.073C396.63 48.9044 397.239 49.3343 397.888 49.6949H380.385C380.3 49.4823 380.219 49.2686 380.141 49.0538H369.949L369.838 48.7449H363V48.1038H369.626C369.591 47.9934 369.556 47.8827 369.523 47.7718H379.714C379.65 47.559 379.588 47.3462 379.529 47.1308ZM380.936 50.9769H425.137C424.727 51.8585 424.265 52.7148 423.753 53.541H382.321C382.189 53.3293 382.061 53.1156 381.936 52.9H371.745C371.681 52.7897 371.618 52.6795 371.556 52.568H363V51.9269H371.212L371.054 51.6192H381.246C381.14 51.4071 381.036 51.1934 380.936 50.9782V50.9769ZM384.692 56.7462C384.881 56.9641 385.074 57.1769 385.272 57.3872H420.801C421.558 56.5809 422.259 55.7242 422.9 54.8231H383.173C383.327 55.0397 383.483 55.2538 383.645 55.4641H373.453L373.706 55.791H363V56.4321H374.231C374.319 56.5385 374.409 56.6423 374.5 56.7462H384.692ZM388.945 60.5923C389.256 60.8141 389.573 61.0282 389.894 61.2333H416.179C417.359 60.4755 418.472 59.6177 419.505 58.6692H386.569C386.806 58.8872 387.049 59.1013 387.295 59.3103H377.103C377.241 59.4282 377.381 59.5436 377.522 59.6564H363V60.2974H378.349C378.482 60.3974 378.618 60.4962 378.754 60.5923H388.946H388.945ZM397.941 64.5462C399.585 64.8962 401.288 65.0795 403.036 65.0795C406.951 65.0795 410.65 64.1564 413.927 62.5154H392.145C392.601 62.7436 393.064 62.9577 393.535 63.1564H383.342C383.524 63.2333 383.708 63.309 383.891 63.3821H363V64.0231H385.724C387.977 64.7103 390.368 65.0795 392.845 65.0795C394.592 65.0795 396.297 64.8962 397.941 64.5462ZM383.173 26.6179H422.9C422.259 25.7168 421.558 24.8602 420.801 24.0538H385.272C385.074 24.2641 384.881 24.4769 384.691 24.6949H374.5L374.274 24.959H363V25.6H373.746C373.647 25.7244 373.55 25.85 373.454 25.9769H383.645C383.483 26.1885 383.327 26.4026 383.173 26.6179ZM386.568 22.7718H419.504C418.471 21.8234 417.359 20.9655 416.179 20.2077H389.894C389.573 20.4141 389.256 20.6282 388.945 20.8487H378.754C378.613 20.95 378.472 21.0513 378.333 21.1551H363V21.7962H377.508C377.372 21.9064 377.237 22.0179 377.104 22.1308H387.295C387.049 22.3397 386.806 22.5538 386.568 22.7718ZM392.146 18.9256H413.928C410.547 17.2339 406.818 16.3558 403.037 16.3615C401.288 16.3615 399.585 16.5462 397.941 16.8962C396.266 16.54 394.558 16.3608 392.845 16.3615C390.109 16.3615 387.479 16.8128 385.024 17.6436H363V18.2846H393.535C393.065 18.4836 392.602 18.6974 392.146 18.9256ZM505.626 16C506.468 16 507.129 16.2103 507.61 16.6308C508.112 17.0321 508.362 17.5923 508.362 18.3154C508.362 19.0372 508.112 19.6077 507.61 20.0282C507.129 20.4295 506.468 20.6308 505.626 20.6308C504.785 20.6308 504.113 20.4295 503.612 20.0282C503.131 19.6077 502.89 19.0372 502.89 18.3154C502.89 17.5936 503.131 17.0333 503.612 16.6308C504.113 16.2103 504.785 16 505.626 16ZM507.971 23.4256V36.5038C507.971 37.3462 508.112 37.9179 508.392 38.2179C508.692 38.5192 509.194 38.6692 509.895 38.6692V39.3C509.334 39.2726 508.773 39.2525 508.212 39.2397C507.44 39.1994 506.668 39.1793 505.896 39.1795C505.115 39.1795 504.323 39.2 503.522 39.2397C502.92 39.253 502.319 39.2731 501.718 39.3V38.6692C502.419 38.6692 502.91 38.5192 503.191 38.2179C503.491 37.9179 503.642 37.3462 503.642 36.5038V27.0333C503.642 26.1321 503.501 25.4692 503.221 25.05C502.96 24.609 502.459 24.3885 501.718 24.3885V23.7564C502.359 23.8167 502.981 23.8462 503.582 23.8462C504.423 23.8462 505.205 23.8167 505.927 23.7564C506.668 23.6769 507.35 23.5667 507.971 23.4256Z" fill="#1E1E1F"/>
<path fill-rule="evenodd" clip-rule="evenodd" d="M516.432 26.1846V23.4256C515.812 23.5667 515.13 23.6769 514.388 23.7564C513.646 23.8167 512.864 23.8462 512.042 23.8462C511.441 23.8462 510.821 23.8167 510.178 23.7564V24.3885C510.9 24.3885 511.401 24.609 511.682 25.05C511.963 25.4705 512.103 26.1321 512.103 27.0333V42.0667C512.103 42.868 511.963 43.409 511.682 43.6897C511.422 43.9705 510.96 44.1103 510.299 44.1103V44.7423L511.892 44.6526C512.624 44.6322 513.355 44.6219 514.087 44.6218C515.109 44.6218 516.072 44.6321 516.973 44.6513C517.895 44.6923 518.617 44.7218 519.138 44.741V44.1103C518.296 44.1103 517.635 43.95 517.154 43.6295C516.673 43.3295 516.432 42.7077 516.432 41.7654V38.7526C516.696 38.9731 517.006 39.1551 517.364 39.3C518.005 39.5821 518.717 39.7218 519.499 39.7218C520.562 39.7218 521.513 39.5308 522.355 39.15C523.211 38.7734 523.964 38.196 524.55 37.4667C525.171 36.7051 525.642 35.7731 525.963 34.6705C526.304 33.568 526.474 32.2859 526.474 30.8218C526.474 29.159 526.233 27.7756 525.753 26.6731C525.272 25.55 524.629 24.7192 523.828 24.1782C523.027 23.617 522.07 23.3223 521.092 23.3359C519.929 23.3359 518.908 23.6359 518.026 24.2372C517.332 24.7051 516.801 25.3539 516.432 26.1859V26.1846ZM516.432 27.218V38.1167C516.599 38.3141 516.8 38.4782 517.033 38.609C517.414 38.809 517.845 38.909 518.327 38.909C519.228 38.909 519.94 38.609 520.462 38.0077C520.982 37.3859 521.353 36.5244 521.573 35.4218C521.814 34.3 521.935 32.9667 521.935 31.4231C521.935 29.7 521.824 28.3462 521.604 27.3641C521.383 26.3821 521.082 25.6808 520.701 25.2603C520.321 24.8385 519.86 24.6282 519.318 24.6282C518.597 24.6282 517.936 24.9103 517.335 25.4705C516.882 25.9064 516.581 26.4897 516.432 27.218Z" fill="#1E1E1F"/>
<path d="M533.377 23.3359C534.219 23.3359 534.95 23.4461 535.572 23.6666C536.213 23.8666 536.674 24.0679 536.955 24.2679C537.636 24.7295 538.058 24.4282 538.218 23.3653H538.849C538.809 23.9269 538.778 24.6192 538.759 25.4397C538.738 26.2423 538.728 27.3141 538.728 28.6577H538.097C537.995 27.9059 537.803 27.1691 537.526 26.4628C537.27 25.7773 536.847 25.1671 536.294 24.6884C535.772 24.2269 535.091 23.9961 534.249 23.9961C533.668 23.9961 533.177 24.1679 532.776 24.5089C532.374 24.8295 532.174 25.3 532.174 25.9218C532.174 26.523 532.355 27.0538 532.715 27.5153C533.077 27.9564 533.537 28.3871 534.099 28.8077C534.68 29.2089 535.281 29.6397 535.903 30.1C536.564 30.6012 537.165 31.1025 537.706 31.6038C538.225 32.0572 538.662 32.5962 538.999 33.1974C539.321 33.7782 539.481 34.4692 539.481 35.2718C539.481 36.173 539.219 36.9641 538.699 37.6461C538.177 38.3077 537.486 38.8192 536.624 39.1795C535.782 39.541 534.84 39.7218 533.799 39.7218C533.252 39.728 532.706 39.6673 532.174 39.541C531.758 39.4371 531.354 39.2857 530.972 39.0897C530.712 38.9692 530.46 38.8589 530.221 38.7589C530.016 38.6464 529.805 38.5463 529.588 38.4589C529.388 38.3987 529.208 38.4679 529.047 38.6692C528.908 38.8692 528.797 39.15 528.717 39.5102H528.086C528.126 38.8692 528.156 38.0871 528.176 37.1653C528.196 36.2436 528.206 35.0205 528.206 33.4987H528.837C528.958 34.5807 529.178 35.5423 529.499 36.3833C529.819 37.2064 530.25 37.8577 530.791 38.3384C531.353 38.8 532.054 39.0307 532.896 39.0307C533.237 39.0307 533.568 38.9602 533.889 38.8192C534.209 38.6782 534.469 38.4474 534.671 38.1269C534.891 37.8064 535.001 37.3961 535.001 36.8961C535.001 36.0128 534.71 35.2807 534.128 34.7C533.568 34.1192 532.846 33.4871 531.964 32.8064C531.323 32.2846 530.712 31.7743 530.131 31.273C529.592 30.7803 529.127 30.2135 528.747 29.5897C528.381 28.9493 528.194 28.2221 528.206 27.4846C528.206 26.5833 528.446 25.8218 528.927 25.2C529.418 24.5717 530.074 24.0926 530.822 23.8166C531.635 23.4939 532.502 23.3307 533.377 23.3359ZM570.699 23.6666C570.177 23.4461 569.496 23.3359 568.654 23.3359C567.711 23.3263 566.781 23.5538 565.949 23.9974C565.127 24.4179 564.476 25.1295 563.994 26.132V23.4269C563.373 23.5666 562.691 23.6769 561.95 23.7564C561.228 23.8166 560.446 23.8461 559.605 23.8461C559.004 23.8461 558.382 23.8166 557.741 23.7564V24.3884C558.482 24.3884 558.983 24.6089 559.244 25.05C559.524 25.4705 559.664 26.132 559.664 27.0333V36.5038C559.664 37.3461 559.514 37.9179 559.214 38.2179C558.933 38.5192 558.442 38.6692 557.741 38.6692V39.3C558.342 39.273 558.943 39.253 559.545 39.2397C560.326 39.2001 561.108 39.1801 561.89 39.1795C562.591 39.1795 563.273 39.2 563.933 39.2397C564.615 39.2602 565.117 39.2807 565.437 39.3V38.6692C564.917 38.6692 564.545 38.5192 564.324 38.2179C564.104 37.9179 563.994 37.3461 563.994 36.5038V28.1461C563.994 27.4846 564.124 26.8936 564.385 26.3718C564.665 25.8307 565.026 25.4102 565.467 25.1102C565.89 24.8151 566.394 24.6575 566.91 24.6589C567.372 24.6589 567.712 24.7692 567.932 24.9897C568.173 25.1897 568.333 25.4807 568.414 25.8615C568.494 26.2218 568.533 26.6525 568.533 27.1538V36.5038C568.533 37.3461 568.423 37.9179 568.203 38.2179C568.003 38.5192 567.632 38.6692 567.091 38.6692V39.3C567.451 39.2807 567.982 39.2602 568.685 39.2397C570.107 39.1586 571.532 39.1586 572.954 39.2397C573.695 39.2602 574.246 39.2807 574.606 39.3V38.6692C573.965 38.6692 573.514 38.5192 573.254 38.2179C572.994 37.9179 572.863 37.3461 572.863 36.5038V28.2795L572.862 28.1859L572.856 27.882C572.903 27.3795 573.037 26.889 573.254 26.4333C573.535 25.891 573.895 25.4602 574.336 25.1397C574.777 24.8192 575.259 24.6589 575.78 24.6589C576.3 24.6589 576.682 24.7692 576.922 24.9897C577.182 25.1897 577.353 25.4807 577.433 25.8615C577.533 26.2218 577.583 26.6525 577.583 27.1538V36.5038C577.583 37.3461 577.473 37.9179 577.253 38.2179C577.053 38.5192 576.682 38.6692 576.14 38.6692V39.3C576.501 39.2807 577.032 39.2602 577.733 39.2397C578.444 39.1994 579.156 39.1793 579.868 39.1795C580.61 39.1795 581.362 39.2 582.123 39.2397C582.885 39.2602 583.456 39.2807 583.837 39.3V38.6692C583.136 38.6692 582.635 38.5192 582.333 38.2179C582.053 37.9179 581.913 37.3461 581.913 36.5038V28.4166C581.913 27.4141 581.842 26.6128 581.703 26.0115C581.562 25.3897 581.332 24.8897 581.01 24.5089C580.69 24.1474 580.269 23.8679 579.747 23.6666C579.227 23.4461 578.545 23.3359 577.704 23.3359C576.682 23.3359 575.719 23.5461 574.818 23.9666C573.954 24.3795 573.254 25.1666 572.717 26.3282C572.698 26.222 572.677 26.1164 572.653 26.0115C572.513 25.3897 572.282 24.8897 571.962 24.5089C571.641 24.1474 571.219 23.8679 570.699 23.6666ZM555.382 36.023V23.4256C554.76 23.5666 554.08 23.6769 553.337 23.7564C552.617 23.8166 551.835 23.8461 550.992 23.8461C550.391 23.8461 549.771 23.8166 549.128 23.7564V24.3884C549.871 24.3884 550.372 24.6089 550.632 25.05C550.913 25.4705 551.053 26.132 551.053 27.0333V34.9102C551.053 35.5718 550.913 36.173 550.632 36.7141C550.394 37.2094 550.031 37.6344 549.58 37.9474C549.159 38.2483 548.653 38.4065 548.136 38.3987C547.636 38.3987 547.255 38.2974 546.994 38.0974C546.723 37.861 546.534 37.5458 546.453 37.1961C546.368 36.7603 546.327 36.317 546.332 35.873V23.4256C545.712 23.5666 545.03 23.6769 544.289 23.7564C543.567 23.8166 542.785 23.8461 541.944 23.8461C541.342 23.8461 540.721 23.8166 540.08 23.7564V24.3884C540.821 24.3884 541.322 24.6089 541.582 25.05C541.863 25.4705 542.003 26.132 542.003 27.0333V34.6397C542.003 35.6218 542.073 36.4243 542.214 37.0448C542.354 37.6666 542.595 38.1679 542.935 38.5487C543.236 38.8897 543.646 39.1705 544.168 39.391C544.689 39.6102 545.371 39.7218 546.213 39.7218C547.255 39.7218 548.196 39.5102 549.039 39.0897C549.9 38.6487 550.572 37.9269 551.053 36.9256V39.6307C551.724 39.4654 552.408 39.3548 553.097 39.3C553.819 39.2397 554.6 39.2102 555.442 39.2102C556.064 39.2102 556.685 39.2397 557.306 39.3V38.6692C556.585 38.6692 556.083 38.4589 555.803 38.0371C555.522 37.5961 555.382 36.9256 555.382 36.0243V36.023Z" fill="#1E1E1F"/>
<path fill-rule="evenodd" clip-rule="evenodd" d="M497.226 24.1474C496.123 23.6064 494.84 23.3359 493.377 23.3359C491.954 23.3359 490.681 23.6064 489.559 24.1474C488.456 24.6885 487.585 25.5603 486.944 26.7628C486.322 27.9654 486.01 29.559 486.01 31.5436C486.01 33.5282 486.322 35.1205 486.942 36.3244C487.583 37.5064 488.455 38.368 489.558 38.909C490.681 39.45 491.954 39.7218 493.377 39.7218C494.84 39.7218 496.123 39.45 497.226 38.909C498.327 38.368 499.19 37.5064 499.81 36.3244C500.432 35.1218 500.742 33.5282 500.742 31.5436C500.742 29.559 500.432 27.9667 499.81 26.7628C499.19 25.5603 498.327 24.6885 497.226 24.1474ZM491.363 25.741C491.904 24.5385 492.576 23.9372 493.377 23.9372C494.199 23.9372 494.87 24.5385 495.391 25.741C495.932 26.9231 496.203 28.8577 496.203 31.5436C496.203 34.2295 495.932 36.1641 495.391 37.3462C494.87 38.5282 494.199 39.1205 493.377 39.1205C492.576 39.1205 491.904 38.5282 491.363 37.3462C490.822 36.1641 490.551 34.2295 490.551 31.5436C490.551 28.8577 490.82 26.9231 491.363 25.741ZM476.206 44.9526C474.963 44.9526 473.851 44.8423 472.869 44.6218C471.908 44.4218 471.146 44.1013 470.585 43.6603C470.044 43.2385 469.773 42.718 469.773 42.0962C469.773 41.4744 470.053 40.9141 470.614 40.4128C471.176 39.9321 472.008 39.5513 473.11 39.2705L473.379 39.7513C473.035 40.0098 472.749 40.3373 472.538 40.7128C472.378 41.0744 472.297 41.4449 472.297 41.8256C472.297 42.668 472.678 43.309 473.441 43.7487C474.223 44.2103 475.274 44.441 476.597 44.441C477.499 44.441 478.301 44.3205 479.003 44.0808C479.724 43.8398 480.285 43.4782 480.686 42.9987C481.108 42.5167 481.318 41.9256 481.318 41.2244C481.318 40.6231 481.097 40.1115 480.656 39.691C480.215 39.2897 479.333 39.0898 478.01 39.0898H476.146C475.326 39.0898 474.603 39 473.982 38.8192C473.379 38.6397 472.909 38.3577 472.568 37.9769C472.228 37.5769 472.058 37.0756 472.058 36.4744C472.058 35.6321 472.388 34.891 473.05 34.2487C473.568 33.7462 474.283 33.268 475.196 32.8154C474.596 32.7408 474.007 32.5966 473.44 32.3859C472.538 32.0449 471.827 31.5231 471.306 30.8218C470.785 30.1205 470.524 29.2192 470.524 28.1167C470.524 27.0141 470.785 26.1115 471.306 25.4103C471.827 24.6885 472.538 24.1667 473.441 23.8462C474.342 23.5064 475.364 23.3359 476.506 23.3359C477.65 23.3359 478.672 23.5064 479.573 23.8474C480.168 24.0577 480.678 24.3564 481.108 24.741C481.363 24.3731 481.673 24.0449 482.038 23.7564C482.72 23.2359 483.453 22.9744 484.233 22.9744C484.874 22.9744 485.356 23.1551 485.677 23.5167C486.018 23.8564 486.188 24.3077 486.188 24.8692C486.188 25.4705 486.027 25.9205 485.706 26.2218C485.386 26.5039 485.026 26.6436 484.624 26.6436C484.271 26.6389 483.931 26.511 483.663 26.2821C483.381 26.041 483.222 25.6808 483.182 25.2C483.147 24.7692 483.268 24.2359 483.544 23.5974C482.959 23.8462 482.508 24.1295 482.19 24.4487C481.95 24.6798 481.741 24.9405 481.567 25.2244C481.615 25.2846 481.663 25.3474 481.708 25.4103C482.229 26.1115 482.49 27.0128 482.49 28.1154C482.49 29.218 482.229 30.1205 481.708 30.8218C481.187 31.5231 480.476 32.0449 479.573 32.3859C478.672 32.7256 477.65 32.8962 476.506 32.8962C476.335 32.8963 476.164 32.8925 475.994 32.8846C475.723 33.068 475.463 33.2628 475.214 33.468C475.06 33.5888 474.936 33.7442 474.852 33.9217C474.769 34.0991 474.728 34.2937 474.733 34.4898C474.733 35.1308 475.135 35.4513 475.936 35.4513H479.213C480.315 35.4513 481.297 35.5821 482.159 35.8423C483.041 36.1039 483.732 36.5346 484.233 37.1359C484.755 37.7167 485.015 38.4782 485.015 39.4205C485.015 40.4026 484.695 41.3141 484.054 42.1564C483.432 42.9987 482.47 43.6692 481.167 44.1705C479.864 44.6923 478.21 44.9526 476.206 44.9526ZM476.506 32.3551C477.049 32.3551 477.468 32.0551 477.769 31.4539C478.07 30.8321 478.22 29.7192 478.22 28.1167C478.22 26.5128 478.07 25.4103 477.769 24.809C477.469 24.1872 477.049 23.8769 476.508 23.8769C475.986 23.8769 475.565 24.1872 475.245 24.809C474.944 25.4103 474.794 26.5128 474.794 28.1167C474.794 29.7192 474.944 30.8321 475.245 31.4539C475.565 32.0551 475.986 32.3551 476.506 32.3551ZM465.881 24.1474C464.778 23.6064 463.496 23.3359 462.033 23.3359C460.61 23.3359 459.337 23.6064 458.215 24.1474C457.113 24.6885 456.241 25.5603 455.6 26.7628C454.978 27.9654 454.667 29.559 454.667 31.5436C454.667 33.5282 454.978 35.1205 455.599 36.3244C456.24 37.5064 457.111 38.368 458.214 38.909C459.337 39.45 460.61 39.7218 462.033 39.7218C463.496 39.7218 464.779 39.45 465.881 38.909C466.983 38.368 467.845 37.5064 468.467 36.3244C469.088 35.1218 469.399 33.5282 469.399 31.5436C469.399 29.559 469.088 27.9667 468.467 26.7628C467.846 25.5603 466.983 24.6885 465.881 24.1474ZM460.018 25.741C460.56 24.5385 461.231 23.9372 462.033 23.9372C462.854 23.9372 463.526 24.5385 464.046 25.741C464.588 26.9231 464.859 28.8577 464.859 31.5436C464.859 34.2295 464.588 36.1641 464.047 37.3462C463.526 38.5282 462.855 39.1205 462.033 39.1205C461.231 39.1205 460.559 38.5282 460.018 37.3462C459.477 36.1641 459.206 34.2295 459.206 31.5436C459.206 28.8577 459.477 26.9231 460.018 25.741Z" fill="#1E1E1F"/>
<path d="M446.569 18.0142V18.6167C445.888 18.636 445.367 18.7154 445.006 18.8565C444.841 18.9123 444.692 19.007 444.572 19.1327C444.451 19.2583 444.363 19.4112 444.314 19.5783C444.195 19.918 444.135 20.4603 444.135 21.2013V36.4744C444.135 37.0949 444.174 37.5565 444.255 37.8577C444.355 38.1578 444.536 38.3577 444.796 38.459C445.077 38.559 445.488 38.609 446.028 38.609H447.503C448.182 38.609 448.824 38.4488 449.426 38.1283C450.028 37.8078 450.568 37.3565 451.049 36.7744C451.556 36.128 451.962 35.4082 452.253 34.6398C452.573 33.8193 452.813 32.9065 452.973 31.9039H453.665C453.605 32.586 453.576 33.468 453.576 34.5501C453.576 35.0116 453.585 35.6821 453.605 36.5642C453.626 37.4462 453.685 38.359 453.785 39.3001C452.633 39.2576 451.481 39.2375 450.328 39.2398C449.046 39.2206 447.903 39.2103 446.9 39.2103H444.977C444.195 39.2103 443.353 39.2206 442.451 39.2398C441.549 39.2398 440.637 39.2501 439.715 39.2706C438.792 39.2706 437.92 39.2808 437.1 39.3001V38.6988C437.741 38.659 438.222 38.5783 438.542 38.459C438.863 38.3385 439.073 38.0975 439.174 37.7372C439.294 37.3757 439.354 36.8347 439.354 36.1129V21.2013C439.354 20.459 439.294 19.9193 439.174 19.5783C439.135 19.4115 439.053 19.2576 438.938 19.1312C438.822 19.0049 438.676 18.9103 438.513 18.8565C438.192 18.7154 437.72 18.636 437.1 18.6154V18.0142C438.683 18.0728 440.266 18.1027 441.85 18.1039C442.732 18.1039 443.594 18.0949 444.435 18.0744C445.297 18.0539 446.009 18.0347 446.569 18.0142Z" fill="#1E1E1F"/>
<path fill-rule="evenodd" clip-rule="evenodd" d="M580.783 64.1448C580.741 63.9294 580.769 63.6487 580.871 63.3025L585.105 47.9602C584.427 48.2383 583.726 48.4549 583.009 48.6076C582.274 48.7525 581.432 48.8307 580.481 48.8461L580.33 49.2999C581.036 49.2999 581.476 49.4153 581.649 49.6461C581.821 49.8769 581.842 50.2358 581.713 50.7256L580.71 54.5064C580.647 54.324 580.539 54.1607 580.395 54.032C580.15 53.8012 579.812 53.6858 579.38 53.6858C578.515 53.6858 577.715 53.8807 576.981 54.2692C576.242 54.6729 575.577 55.1992 575.014 55.8256C574.423 56.4603 573.921 57.1729 573.523 57.9435C573.131 58.6934 572.819 59.4829 572.594 60.2987C572.389 61.0013 572.28 61.7284 572.269 62.4602C572.269 63.1512 572.378 63.7205 572.594 64.1666C572.81 64.5987 573.105 64.923 573.48 65.1384C573.854 65.341 574.272 65.441 574.733 65.441C575.439 65.441 576.073 65.2333 576.635 64.8153C577.196 64.3833 577.722 63.7205 578.213 62.8269C578.418 62.4628 578.624 62.0538 578.83 61.5999L578.687 62.1358C578.557 62.558 578.47 62.9923 578.428 63.432C578.4 63.8064 578.428 64.1243 578.515 64.3833C578.687 65.0884 579.221 65.4423 580.114 65.4423C580.445 65.4423 580.783 65.3769 581.13 65.2474C581.476 65.1179 581.799 64.8948 582.101 64.5769C582.419 64.2602 582.671 63.8076 582.858 63.2153L583.377 61.6384H582.967L582.621 62.6102C582.362 63.3461 582.117 63.8423 581.886 64.1012C581.669 64.3474 581.446 64.4692 581.215 64.4692C580.971 64.4692 580.827 64.3615 580.783 64.1448ZM579.631 58.5807C579.468 59.1076 579.291 59.6089 579.099 60.082C578.739 61.0051 578.356 61.7974 577.953 62.4602C577.564 63.1076 577.182 63.6115 576.808 63.973C576.433 64.3179 576.101 64.491 575.814 64.491C575.54 64.491 575.339 64.3615 575.209 64.1025C575.094 63.8282 575.036 63.4179 575.036 62.8705C575.036 62.0923 575.122 61.2999 575.295 60.4935C575.468 59.673 575.705 58.8871 576.008 58.1384C576.286 57.4358 576.634 56.7624 577.045 56.1282C577.435 55.523 577.845 55.0474 578.277 54.7012C578.723 54.3551 579.163 54.1833 579.595 54.1833C579.883 54.1833 580.114 54.2846 580.287 54.4858C580.408 54.6166 580.5 54.8064 580.564 55.0576L579.631 58.5807Z" fill="#1E1E1F"/>
<path d="M566.404 65.1385H563.746L566.338 55.8257C566.469 55.3936 566.511 55.0911 566.469 54.918C566.426 54.7449 566.296 54.659 566.079 54.659C565.806 54.659 565.554 54.7962 565.323 55.0693C565.092 55.3424 564.855 55.8257 564.61 56.518L564.242 57.5321H563.832L564.394 55.9116C564.596 55.3347 564.847 54.8898 565.15 54.5718C565.453 54.2411 565.785 54.0103 566.145 53.8808C566.505 53.7513 566.872 53.6859 567.246 53.6859C567.708 53.6859 568.046 53.7795 568.261 53.968C568.492 54.1552 568.637 54.4 568.695 54.7026C568.768 55.0287 568.782 55.3651 568.737 55.6962C568.709 56.0424 568.651 56.3808 568.564 56.7116L568.217 58.0667L568.305 57.8359C568.709 56.8129 569.097 55.9988 569.472 55.3936C569.861 54.7744 570.272 54.3347 570.704 54.0757C571.127 53.8184 571.614 53.6835 572.109 53.6859C572.627 53.6859 573.023 53.8372 573.297 54.1398C573.586 54.4424 573.729 54.8167 573.729 55.2642C573.729 55.6231 573.642 55.9629 573.47 56.2795C573.302 56.5767 573.065 56.8287 572.778 57.0142C572.505 57.1872 572.188 57.2731 571.828 57.2731C571.468 57.2731 571.179 57.1795 570.963 56.9924C570.761 56.8052 570.66 56.5308 570.66 56.1718C570.66 55.8539 570.733 55.5667 570.877 55.3065C571.016 55.0531 571.207 54.8323 571.438 54.659C571.669 54.4718 571.922 54.3424 572.195 54.2693C572.165 54.2396 572.128 54.2176 572.087 54.2052C572.038 54.1899 571.987 54.1826 571.936 54.1834C571.619 54.1834 571.295 54.2988 570.963 54.5295C570.632 54.7449 570.286 55.0988 569.926 55.5885C569.565 56.0783 569.199 56.7257 568.824 57.5321C568.402 58.4857 568.027 59.4595 567.7 60.4501C567.537 60.9295 567.373 61.4449 567.209 61.9975L566.404 65.1385Z" fill="#1E1E1F"/>
<path fill-rule="evenodd" clip-rule="evenodd" d="M558.329 61.7999L558.238 62.1358C558.102 62.6238 558.008 63.1227 557.958 63.6269C557.914 64.0884 557.986 64.4769 558.173 64.7935C558.461 65.2256 558.951 65.4423 559.642 65.4423C559.974 65.4423 560.305 65.3769 560.637 65.2474C560.982 65.1179 561.306 64.8948 561.609 64.5769C561.911 64.2461 562.164 63.7846 562.365 63.1948L562.906 61.6179H562.495L562.17 62.5897C561.911 63.3384 561.66 63.8358 561.415 64.0807C561.17 64.3243 560.932 64.4474 560.701 64.4474C560.514 64.4474 560.392 64.3897 560.335 64.2743C560.289 64.1275 560.275 63.9731 560.291 63.8205C560.319 63.6373 560.362 63.4567 560.42 63.2807L563.209 53.6858C562.775 53.7896 562.334 53.862 561.89 53.9025C561.444 53.9461 560.962 53.9743 560.442 53.9884L560.129 55.1448C560.116 54.8512 560.031 54.5654 559.881 54.3128C559.768 54.1158 559.604 53.9534 559.406 53.8429C559.208 53.7324 558.983 53.6781 558.756 53.6858C558.123 53.6858 557.49 53.8807 556.855 54.2692C556.181 54.693 555.576 55.2179 555.061 55.8256C554.48 56.4883 553.973 57.2127 553.549 57.9858C553.124 58.7612 552.783 59.58 552.533 60.4282C552.298 61.1913 552.174 61.9846 552.167 62.7833C552.167 63.591 552.354 64.2384 552.728 64.7282C553.103 65.2038 553.678 65.441 554.456 65.441C555.004 65.441 555.529 65.2833 556.035 64.9666C556.553 64.6487 557.042 64.123 557.504 63.3897C557.79 62.9474 558.064 62.4179 558.329 61.7999ZM556.467 63.9935C556.135 64.2961 555.84 64.4474 555.581 64.4474C555.364 64.4474 555.199 64.3397 555.083 64.123C554.982 63.8923 554.932 63.5115 554.932 62.9782C554.932 62.2141 555.018 61.4294 555.191 60.623C555.364 59.8153 555.595 59.0384 555.883 58.2897C556.186 57.5397 556.517 56.8705 556.877 56.2794C557.237 55.6897 557.597 55.2205 557.958 54.8743C558.332 54.5282 558.685 54.3564 559.017 54.3564C559.362 54.3564 559.606 54.5294 559.751 54.8743C559.895 55.1871 559.932 55.6064 559.863 56.1307L559.224 58.4923L559.297 58.1166C559.067 59.0384 558.792 59.8884 558.476 60.6666C558.2 61.3623 557.868 62.0342 557.482 62.6756C557.136 63.2371 556.797 63.6769 556.467 63.9935ZM549.261 63.3025C549.16 63.6487 549.132 63.9294 549.176 64.1448C549.218 64.3615 549.363 64.4692 549.608 64.4692C549.838 64.4692 550.061 64.3474 550.277 64.1025C550.508 63.8423 550.753 63.3461 551.011 62.6102L551.358 61.6384H551.768L551.25 63.2153C551.063 63.8064 550.81 64.2602 550.494 64.5769C550.224 64.8713 549.892 65.1006 549.52 65.2474C549.197 65.3732 548.853 65.4392 548.505 65.4423C547.613 65.4423 547.079 65.0884 546.906 64.3833C546.815 64.075 546.786 63.7517 546.82 63.432C546.849 63.0576 546.935 62.6243 547.079 62.1358L547.222 61.5999C547.015 62.0538 546.809 62.4628 546.604 62.8269C546.114 63.7205 545.588 64.3833 545.027 64.8141C544.479 65.2276 543.81 65.4484 543.124 65.4423C542.664 65.4423 542.246 65.3397 541.872 65.1397C541.486 64.9114 541.177 64.5724 540.986 64.1666C540.769 63.7205 540.661 63.1512 540.661 62.4602C540.661 61.7974 540.769 61.0756 540.986 60.2987C541.201 59.5064 541.511 58.7217 541.914 57.9435C542.313 57.1732 542.814 56.4607 543.405 55.8256C543.996 55.1769 544.651 54.6589 545.372 54.2692C546.111 53.8792 546.935 53.6788 547.77 53.6858C548.203 53.6858 548.541 53.8012 548.786 54.032C548.927 54.1564 549.033 54.3141 549.103 54.5064L550.104 50.7256C550.235 50.2358 550.213 49.8756 550.04 49.6448C549.867 49.4141 549.427 49.2987 548.722 49.2987L548.873 48.8461C549.721 48.8412 550.567 48.7615 551.401 48.6076C552.118 48.4549 552.819 48.2383 553.497 47.9602L549.261 63.3025ZM547.49 60.082C547.682 59.6076 547.86 59.1076 548.022 58.5807L548.956 55.0576C548.911 54.8473 548.816 54.6511 548.678 54.4858C548.593 54.3865 548.487 54.3077 548.367 54.2553C548.248 54.2029 548.118 54.1783 547.987 54.1833C547.555 54.1833 547.115 54.3564 546.669 54.7012C546.236 55.0474 545.826 55.523 545.437 56.1282C545.026 56.7617 544.678 57.4347 544.4 58.1371C544.093 58.8999 543.854 59.6885 543.687 60.4935C543.517 61.2744 543.429 62.0712 543.427 62.8705C543.427 63.4179 543.485 63.8282 543.6 64.1012C543.729 64.3615 543.932 64.491 544.205 64.491C544.494 64.491 544.824 64.3179 545.199 63.9717C545.574 63.6128 545.955 63.1076 546.345 62.4589C546.794 61.7009 547.177 60.9057 547.49 60.082Z" fill="#1E1E1F"/>
<path d="M528.762 65.1385H531.419L531.669 64.1616L531.656 64.2321C531.931 63.2231 532.24 62.2513 532.586 61.3141C532.922 60.4197 533.297 59.5403 533.709 58.6782C534.099 57.8705 534.487 57.1654 534.877 56.5603C535.265 55.9551 535.64 55.4872 536 55.1551C536.36 54.809 536.691 54.6372 536.994 54.6372C537.239 54.6372 537.39 54.7231 537.447 54.8962C537.507 55.0925 537.515 55.3011 537.469 55.5013C537.426 55.7355 537.368 55.9667 537.296 56.1936L535.331 62.1359C535.128 62.741 535.013 63.259 534.985 63.691C534.955 64.1231 535.035 64.4769 535.222 64.75C535.367 64.9667 535.568 65.1321 535.827 65.2474C536.101 65.3757 536.426 65.4423 536.8 65.4423C537.145 65.4423 537.491 65.3769 537.837 65.2474C538.197 65.1321 538.528 64.9154 538.831 64.5987C539.147 64.2821 539.408 63.8205 539.609 63.2154L540.149 61.6385H539.739L539.392 62.6103C539.119 63.3603 538.86 63.8564 538.615 64.1013C538.385 64.3475 538.162 64.4692 537.945 64.4692C537.714 64.4692 537.571 64.3757 537.513 64.1872C537.455 63.9872 537.491 63.691 537.621 63.3026L539.739 56.9487C539.926 56.3872 540.019 55.8616 540.019 55.3718C540.033 54.868 539.897 54.4641 539.609 54.1616C539.335 53.8449 538.845 53.6872 538.14 53.6872C537.606 53.6872 537.095 53.8026 536.605 54.0321C536.115 54.2628 535.64 54.6654 535.18 55.2423C534.718 55.8039 534.242 56.568 533.753 57.5321C533.428 58.1824 533.13 58.8458 532.859 59.5205L533.58 56.7116C533.667 56.3654 533.731 56.0192 533.774 55.6744C533.818 55.3154 533.803 54.9898 533.731 54.7013C533.662 54.4034 533.485 54.1417 533.235 53.9667C532.99 53.7795 532.63 53.6859 532.154 53.6859C531.577 53.6859 531.051 53.8449 530.576 54.1616C530.101 54.4782 529.712 55.0616 529.409 55.9116L528.847 57.5321H529.258L529.626 56.5167C529.885 55.8116 530.122 55.3282 530.339 55.0692C530.569 54.7962 530.821 54.659 531.095 54.659C531.296 54.659 531.419 54.7167 531.463 54.8321C531.519 54.9475 531.535 55.091 531.505 55.2641C531.473 55.4536 531.43 55.6411 531.376 55.8257L528.762 65.1385Z" fill="#1E1E1F"/>
<path fill-rule="evenodd" clip-rule="evenodd" d="M523.254 62.1359L523.345 61.8C523.114 62.3518 522.838 62.8835 522.519 63.3898C522.058 64.1231 521.568 64.65 521.049 64.9667C520.545 65.2833 520.019 65.441 519.472 65.441C518.694 65.441 518.118 65.2039 517.744 64.7282C517.368 64.2385 517.181 63.591 517.181 62.7833C517.181 62.0346 517.304 61.25 517.549 60.4282C517.799 59.5801 518.139 58.7613 518.564 57.9859C518.988 57.2124 519.495 56.488 520.077 55.8257C520.592 55.218 521.196 54.6931 521.871 54.2692C522.504 53.8808 523.138 53.6859 523.772 53.6859C524.262 53.6859 524.636 53.8949 524.896 54.3141C525.035 54.5282 525.118 54.8051 525.145 55.1449L525.458 53.9885C525.976 53.9744 526.459 53.9462 526.905 53.9026C527.367 53.859 527.805 53.7872 528.223 53.6859L525.436 63.2821C525.377 63.4579 525.334 63.6385 525.306 63.8218C525.29 63.9745 525.305 64.1289 525.35 64.2757C525.408 64.391 525.53 64.4487 525.717 64.4487C525.947 64.4487 526.185 64.3269 526.429 64.0821C526.674 63.8372 526.927 63.3385 527.186 62.591L527.51 61.618H527.921L527.381 63.1949C527.179 63.7859 526.927 64.2462 526.624 64.5795C526.355 64.8732 526.023 65.102 525.653 65.2487C525.336 65.3756 524.999 65.4417 524.658 65.4436C523.967 65.4436 523.477 65.2269 523.188 64.7949C523.001 64.4782 522.93 64.0898 522.973 63.6282C523.023 63.124 523.117 62.6239 523.254 62.1359ZM520.595 64.4475C520.855 64.4475 521.15 64.2962 521.482 63.9936C521.813 63.6769 522.151 63.2372 522.497 62.6757C522.842 62.1141 523.174 61.4449 523.491 60.6667C523.808 59.8885 524.082 59.0385 524.313 58.1154L524.24 58.4923L524.878 56.1321C524.946 55.6064 524.909 55.1872 524.767 54.8757C524.622 54.5295 524.377 54.3564 524.031 54.3564C523.7 54.3564 523.347 54.5295 522.973 54.8744C522.613 55.2205 522.253 55.6885 521.892 56.2795C521.532 56.8692 521.2 57.5398 520.897 58.2885C520.607 59.0472 520.376 59.8274 520.206 60.6218C520.037 61.3959 519.95 62.1858 519.947 62.9782C519.947 63.5116 519.997 63.8936 520.099 64.1231C520.214 64.3398 520.38 64.4475 520.595 64.4475Z" fill="#1E1E1F"/>
<path d="M518.679 54.4206L518.745 53.9885H516.17L517.188 50.4449C516.762 50.5498 516.329 50.6222 515.892 50.6616C515.446 50.7039 514.963 50.7334 514.445 50.7475L513.515 53.9885H511.549L511.441 54.4206H513.392L511.181 62.1359C510.994 62.7693 510.929 63.3385 510.987 63.8424C511.059 64.3321 511.26 64.7218 511.592 65.009C511.937 65.2975 512.435 65.4424 513.083 65.4424C513.818 65.4424 514.451 65.2475 514.985 64.8577C515.518 64.4693 515.936 63.8283 516.238 62.9347L516.67 61.6385H516.259L515.936 62.5244C515.676 63.2449 515.388 63.7488 515.07 64.0372C514.768 64.3257 514.465 64.4693 514.163 64.4693C514.044 64.4732 513.926 64.4498 513.817 64.401C513.709 64.3521 513.613 64.2789 513.537 64.1872C513.392 64.0013 513.378 63.7065 513.494 63.3026L516.046 54.4206H518.679ZM511.523 49.6885C511.379 50.0629 511.185 50.6116 510.94 51.3308C510.709 52.0359 510.479 52.959 510.249 54.0962H509.817C509.859 53.8949 509.888 53.6859 509.903 53.4706C509.93 53.2773 509.945 53.0824 509.946 52.8872C509.946 52.3244 509.831 51.8359 509.6 51.418C509.378 50.9797 509.023 50.6235 508.585 50.4013C508.138 50.1424 507.562 50.0129 506.856 50.0129C506.092 50.0129 505.444 50.2142 504.912 50.618C504.378 51.0065 504.112 51.6334 504.112 52.4975C504.112 53.0308 504.233 53.5359 504.478 54.0103C504.738 54.4718 505.063 54.9257 505.451 55.3718C505.855 55.8039 506.279 56.2436 506.726 56.6898C507.173 57.1218 507.591 57.5693 507.979 58.0295C508.368 58.4911 508.686 58.9808 508.931 59.4988C509.19 60.0039 509.319 60.5577 509.319 61.1629C509.319 61.927 509.132 62.5821 508.758 63.1295C508.392 63.6673 507.913 64.1174 507.353 64.4475C506.765 64.7832 506.132 65.0307 505.473 65.1821C504.839 65.3516 504.185 65.439 503.528 65.4424C502.879 65.4424 502.34 65.3911 501.908 65.2911C501.538 65.2215 501.182 65.0975 500.849 64.9231C500.566 64.768 500.285 64.6099 500.005 64.4488C499.878 64.342 499.731 64.261 499.573 64.2103C499.472 64.1597 499.362 64.13 499.25 64.1231C499.062 64.1231 498.904 64.2167 498.774 64.4052C498.604 64.6866 498.46 64.9827 498.342 65.2898H497.909C498.266 64.4111 498.562 63.509 498.796 62.5898C498.968 61.927 499.163 61.0988 499.379 60.1039H499.812C499.751 60.3901 499.701 60.6783 499.66 60.968C499.617 61.2565 499.603 61.5449 499.617 61.8334C499.66 62.8411 499.969 63.6193 500.546 64.1667C501.137 64.7142 502.001 64.9872 503.138 64.9872C504.104 64.9872 504.832 64.7859 505.322 64.3834C505.812 63.9654 506.056 63.3603 506.056 62.568C506.056 61.9629 505.941 61.4142 505.71 60.9257C505.492 60.4176 505.201 59.9442 504.846 59.5206C504.48 59.0822 504.098 58.6571 503.701 58.2462C503.304 57.8352 502.921 57.4097 502.555 56.9706C502.201 56.5342 501.904 56.0553 501.669 55.5449C501.433 54.9993 501.316 54.4098 501.324 53.8154C501.324 53.0962 501.476 52.4693 501.778 51.9359C502.083 51.4157 502.495 50.9664 502.987 50.618C503.492 50.2577 504.055 49.9871 504.651 49.818C505.232 49.6348 505.836 49.5401 506.445 49.5372C507.223 49.5372 507.864 49.6308 508.368 49.8193C508.873 50.0052 509.305 50.2295 509.665 50.4885L510.076 50.7475C510.205 50.8052 510.306 50.8334 510.378 50.8334C510.579 50.8334 510.818 50.4526 511.091 49.6885H511.523Z" fill="#1E1E1F"/>
<path fill-rule="evenodd" clip-rule="evenodd" d="M490.664 64.1448C490.621 63.9294 490.65 63.6487 490.751 63.3025L494.986 47.9602C494.308 48.2383 493.606 48.4549 492.89 48.6076C492.155 48.7525 491.313 48.8307 490.362 48.8461L490.21 49.2999C490.915 49.2999 491.356 49.4153 491.528 49.6461C491.701 49.8769 491.723 50.2358 491.594 50.7256L490.591 54.5064C490.528 54.3239 490.42 54.1607 490.276 54.032C490.031 53.8012 489.692 53.6858 489.26 53.6858C488.395 53.6858 487.596 53.8807 486.862 54.2692C486.123 54.6729 485.458 55.1992 484.895 55.8256C484.304 56.4603 483.802 57.1729 483.404 57.9435C483.011 58.6934 482.7 59.4829 482.474 60.2987C482.269 61.0012 482.16 61.7284 482.15 62.4602C482.15 63.1512 482.259 63.7205 482.474 64.1666C482.691 64.5987 482.986 64.923 483.36 65.1384C483.735 65.341 484.153 65.441 484.614 65.441C485.319 65.441 485.954 65.2333 486.515 64.8153C487.077 64.3833 487.603 63.7205 488.092 62.8269C488.297 62.4628 488.504 62.0538 488.71 61.5999L488.569 62.1358C488.438 62.5578 488.351 62.9921 488.309 63.432C488.275 63.7517 488.304 64.075 488.395 64.3833C488.568 65.0884 489.1 65.4423 489.995 65.4423C490.326 65.4423 490.664 65.3769 491.01 65.2474C491.356 65.1179 491.68 64.8948 491.982 64.5769C492.3 64.2602 492.551 63.8076 492.738 63.2153L493.258 61.6384H492.847L492.501 62.6102C492.242 63.3461 491.997 63.8423 491.767 64.1012C491.55 64.3474 491.327 64.4692 491.096 64.4692C490.853 64.4692 490.708 64.3615 490.664 64.1448ZM489.51 58.5807C489.349 59.1076 489.172 59.6089 488.978 60.082C488.619 61.0051 488.237 61.7974 487.833 62.4602C487.445 63.1076 487.063 63.6115 486.688 63.973C486.314 64.3179 485.983 64.491 485.694 64.491C485.421 64.491 485.219 64.3615 485.09 64.1025C484.974 63.8282 484.917 63.4179 484.917 62.8705C484.917 62.0923 485.003 61.2999 485.176 60.4935C485.349 59.673 485.586 58.8871 485.888 58.1384C486.167 57.4356 486.515 56.7622 486.927 56.1282C487.315 55.523 487.726 55.0474 488.158 54.7012C488.604 54.3551 489.044 54.1833 489.476 54.1833C489.764 54.1833 489.995 54.2846 490.168 54.4858C490.288 54.6166 490.381 54.8064 490.445 55.0576L489.51 58.5807Z" fill="#1E1E1F"/>
<path d="M472.908 65.1385H470.25L472.865 55.8257C472.923 55.6244 472.965 55.4372 472.994 55.2641C473.026 55.1193 473.011 54.9679 472.951 54.8321C472.908 54.7167 472.785 54.659 472.583 54.659C472.31 54.659 472.058 54.7962 471.827 55.0692C471.612 55.3282 471.373 55.8116 471.114 56.518L470.747 57.5321H470.337L470.899 55.9116C471.201 55.0616 471.591 54.4782 472.065 54.1616C472.54 53.8449 473.065 53.6872 473.642 53.6872C474.118 53.6872 474.478 53.7795 474.723 53.9667C474.974 54.1415 475.151 54.4033 475.221 54.7013C475.292 54.9898 475.306 55.3141 475.264 55.6744C475.22 56.0237 475.155 56.3701 475.069 56.7116L474.349 59.5218C474.654 58.7667 474.951 58.1051 475.242 57.5321C475.732 56.568 476.206 55.8039 476.668 55.2423C477.129 54.6654 477.604 54.2628 478.094 54.0321C478.585 53.8013 479.095 53.6859 479.628 53.6859C480.333 53.6859 480.824 53.8449 481.097 54.1616C481.386 54.4641 481.523 54.8667 481.508 55.3718C481.508 55.8616 481.415 56.3872 481.227 56.9487L479.11 63.3026C478.979 63.691 478.944 63.9872 479.001 64.1872C479.059 64.3757 479.204 64.4692 479.435 64.4692C479.65 64.4692 479.873 64.3475 480.104 64.1026C480.349 63.8564 480.608 63.359 480.882 62.6103L481.228 61.6385H481.638L481.097 63.2154C480.896 63.8205 480.636 64.2821 480.321 64.6C480.049 64.8965 479.707 65.1192 479.326 65.2474C478.995 65.3745 478.643 65.4405 478.288 65.4423C477.914 65.4423 477.59 65.3769 477.317 65.2474C477.056 65.1321 476.855 64.9654 476.712 64.75C476.524 64.4769 476.445 64.1231 476.473 63.691C476.503 63.259 476.618 62.741 476.819 62.1359L478.786 56.1936C478.858 55.9628 478.915 55.7321 478.959 55.5013C479.004 55.3011 478.997 55.0926 478.937 54.8962C478.879 54.7231 478.728 54.6372 478.483 54.6372C478.181 54.6372 477.849 54.8103 477.49 55.1551C477.129 55.4872 476.754 55.9551 476.365 56.5603C475.934 57.2421 475.545 57.9494 475.199 58.6782C474.81 59.4859 474.435 60.3628 474.074 61.3141C473.728 62.25 473.421 63.2231 473.146 64.2321L473.159 64.1616L472.908 65.1385Z" fill="#1E1E1F"/>
<path fill-rule="evenodd" clip-rule="evenodd" d="M464.833 61.8L464.744 62.1359C464.607 62.624 464.513 63.1228 464.462 63.6269C464.418 64.0884 464.49 64.4769 464.677 64.7936C464.965 65.2256 465.455 65.4423 466.147 65.4423C466.517 65.4396 466.882 65.3615 467.22 65.2127C467.558 65.0639 467.863 64.8475 468.114 64.5769C468.417 64.2461 468.668 63.7846 468.871 63.1948L469.409 61.6179H468.999L468.676 62.5897C468.415 63.3384 468.163 63.8359 467.919 64.0807C467.674 64.3243 467.436 64.4474 467.206 64.4474C467.018 64.4474 466.896 64.3897 466.838 64.2743C466.793 64.1276 466.779 63.9732 466.795 63.8205C466.824 63.6333 466.867 63.4538 466.926 63.2807L469.713 53.6859C469.279 53.7895 468.839 53.8619 468.395 53.9025C467.947 53.9461 467.465 53.9743 466.946 53.9884L466.633 55.1448C466.62 54.8513 466.535 54.5655 466.385 54.3128C466.272 54.116 466.108 53.9537 465.91 53.8432C465.712 53.7328 465.488 53.6784 465.262 53.6859C464.627 53.6859 463.992 53.8807 463.359 54.2692C462.726 54.6589 462.128 55.1769 461.565 55.8256C460.983 56.488 460.476 57.2124 460.053 57.9859C459.628 58.7612 459.287 59.58 459.037 60.4282C458.801 61.1913 458.678 61.9846 458.671 62.7833C458.671 63.591 458.858 64.2384 459.232 64.7282C459.606 65.2038 460.183 65.441 460.96 65.441C461.508 65.441 462.035 65.2833 462.537 64.9666C463.056 64.6487 463.547 64.123 464.008 63.3897C464.294 62.9474 464.568 62.4179 464.833 61.8ZM462.971 63.9936C462.64 64.2961 462.344 64.4474 462.085 64.4474C461.868 64.4474 461.703 64.3397 461.587 64.123C461.487 63.8923 461.436 63.5115 461.436 62.9782C461.436 62.2141 461.523 61.4295 461.696 60.623C461.868 59.8154 462.099 59.0384 462.387 58.2897C462.69 57.5397 463.021 56.8705 463.381 56.2795C463.741 55.6897 464.101 55.2205 464.462 54.8743C464.836 54.5282 465.188 54.3564 465.521 54.3564C465.867 54.3564 466.11 54.5295 466.255 54.8743C466.399 55.1871 466.435 55.6064 466.367 56.1307L465.728 58.4923L465.801 58.1166C465.571 59.0384 465.297 59.8884 464.981 60.6666C464.663 61.4436 464.332 62.1141 463.986 62.6756C463.64 63.2371 463.301 63.6769 462.971 63.9936Z" fill="#1E1E1F"/>
<path d="M452.891 65.1385H450.233L452.826 55.8257C452.955 55.3936 452.999 55.0911 452.955 54.918C452.913 54.7449 452.783 54.659 452.567 54.659C452.294 54.659 452.041 54.7962 451.81 55.0693C451.58 55.3424 451.342 55.8257 451.098 56.518L450.73 57.5321H450.319L450.881 55.9116C451.083 55.3347 451.335 54.8898 451.637 54.5718C451.94 54.2411 452.272 54.0103 452.632 53.8808C452.991 53.7513 453.359 53.6859 453.735 53.6859C454.195 53.6859 454.533 53.7795 454.749 53.968C454.978 54.1519 455.132 54.4131 455.182 54.7026C455.254 55.0052 455.268 55.3359 455.224 55.6962C455.196 56.0424 455.139 56.3808 455.051 56.7116L454.705 58.0667L454.74 57.9731L454.792 57.8359C455.196 56.8129 455.585 55.9988 455.959 55.3936C456.349 54.7744 456.759 54.3347 457.191 54.0757C457.614 53.8184 458.101 53.6835 458.596 53.6859C459.114 53.6859 459.51 53.8372 459.785 54.1398C460.072 54.4424 460.217 54.8167 460.217 55.2642C460.217 55.6231 460.13 55.9629 459.956 56.2795C459.789 56.5766 459.552 56.8287 459.265 57.0142C458.98 57.1902 458.65 57.2801 458.314 57.2731C457.955 57.2731 457.667 57.1795 457.45 56.9924C457.249 56.8052 457.147 56.5308 457.147 56.1718C457.147 55.8539 457.219 55.5667 457.364 55.3065C457.508 55.0475 457.695 54.8321 457.926 54.659C458.156 54.4718 458.408 54.3424 458.682 54.2693C458.652 54.2398 458.615 54.2178 458.574 54.2052C458.546 54.1954 458.516 54.189 458.486 54.1859C458.465 54.1839 458.443 54.1831 458.422 54.1834C458.106 54.1834 457.781 54.2988 457.45 54.5295C457.119 54.7449 456.773 55.0988 456.413 55.5885C456.054 56.0783 455.686 56.7257 455.31 57.5321C454.888 58.4856 454.513 59.4594 454.187 60.4501C454.024 60.9283 453.86 61.4449 453.696 61.9975L452.891 65.1385Z" fill="#1E1E1F"/>
<path fill-rule="evenodd" clip-rule="evenodd" d="M448.849 50.6397C448.128 50.1205 446.976 49.8615 445.391 49.8615C444.901 49.8615 444.412 49.8692 443.921 49.8833C443.446 49.8974 442.899 49.9051 442.279 49.9051H441.199C440.809 49.8897 440.442 49.8833 440.096 49.8833C439.808 49.8706 439.52 49.8561 439.232 49.8397L439.124 50.2718C439.686 50.2718 440.068 50.3436 440.269 50.4884C440.486 50.6166 440.586 50.8192 440.572 51.0936C440.543 51.4435 440.485 51.7904 440.399 52.1307L437.546 62.8487C437.418 63.3666 437.273 63.7564 437.114 64.0154C436.971 64.2631 436.74 64.4482 436.467 64.5346C436.192 64.6205 435.81 64.6782 435.321 64.7064L435.235 65.1384C435.478 65.1256 435.774 65.1179 436.119 65.1179C436.465 65.1025 436.833 65.0961 437.222 65.0961C438.309 65.0631 439.398 65.0703 440.485 65.1179C441.076 65.1307 441.617 65.1397 442.106 65.1397C443.042 65.1397 443.928 65.0449 444.764 64.8577C445.535 64.6829 446.272 64.3841 446.946 63.9731C447.55 63.6135 448.06 63.1173 448.437 62.5243C448.812 61.9474 448.999 61.2718 448.999 60.4936C448.999 59.6141 448.64 58.8577 447.919 58.2243C447.214 57.5897 446.096 57.2154 444.569 57.1C445.522 56.9632 446.448 56.679 447.313 56.2577C448.121 55.8397 448.754 55.3282 449.215 54.7231C449.68 54.1485 449.932 53.4311 449.928 52.6923C449.928 51.8282 449.571 51.1436 448.849 50.6397ZM441.951 57.382L440.506 62.8487C440.421 63.2077 440.363 63.5256 440.335 63.7987C440.319 64.0731 440.391 64.282 440.55 64.4269C440.709 64.5705 441.004 64.6423 441.436 64.6423C442.459 64.6423 443.295 64.4474 443.942 64.059C444.577 63.6859 445.082 63.1282 445.391 62.4602C445.708 61.7679 445.865 60.9897 445.865 60.1269C445.865 59.5923 445.772 59.1243 445.585 58.7218C445.42 58.3128 445.123 57.9704 444.742 57.7487C444.354 57.5038 443.835 57.382 443.186 57.382H441.951ZM442.049 57.0141H443.036C443.856 57.0141 444.555 56.8051 445.131 56.3872C445.722 55.9551 446.169 55.3936 446.472 54.7025C446.787 54.0179 446.949 53.2728 446.946 52.5192C446.946 51.7987 446.803 51.2448 446.514 50.8551C446.241 50.4666 445.758 50.2718 445.065 50.2718C444.563 50.2718 444.203 50.3731 443.986 50.5743C443.771 50.7615 443.583 51.1718 443.424 51.8051L442.049 57.0141Z" fill="#1E1E1F"/>
</g>
<g opacity="0.5" clip-path="url(#clip1_155_245)">
<path fill-rule="evenodd" clip-rule="evenodd" d="M746.073 19.3277C746.073 17.6333 747.462 16.2598 749.175 16.2598H754.578C755.797 16.2598 756.979 16.6777 757.922 17.4424L759.565 18.7757L759.606 18.8128C759.644 18.8001 759.682 18.7877 759.72 18.7757C762.686 17.8362 766.283 17.6575 769.956 17.6575C773.628 17.6575 777.225 17.8362 780.191 18.7757C780.229 18.7877 780.267 18.8001 780.305 18.8128L780.346 18.7757L781.989 17.4424C782.932 16.6777 784.114 16.2598 785.333 16.2598H790.736C792.449 16.2598 793.838 17.6333 793.838 19.3277V21.2243C793.838 22.6917 793.213 24.0912 792.116 25.0794L790.79 26.2746C790.143 26.858 789.366 27.2826 788.522 27.5141L788.208 27.6001C789.437 30.5001 790.116 33.5998 790.116 36.1074C790.116 46.1944 783.806 50.5509 778.247 54.3894C773.868 57.4124 769.956 60.114 769.956 65.0403C769.956 60.114 766.043 57.4124 761.664 54.3894C756.105 50.5509 749.795 46.1944 749.795 36.1074C749.795 33.5998 750.474 30.5001 751.703 27.6001L751.389 27.5141C750.545 27.2826 749.768 26.858 749.121 26.2746L747.795 25.0794C746.698 24.0912 746.073 22.6917 746.073 21.2243V19.3277ZM773.988 44.354C773.988 44.8359 773.775 45.298 773.397 45.6388C773.019 45.9796 772.506 46.171 771.972 46.171C771.51 46.171 771.065 46.0282 770.708 45.7699C771.315 47.376 772.867 48.8979 775.228 46.4505C777.313 44.1765 775.136 39.3803 773.015 36.5342C772.308 35.5855 771.147 35.129 769.956 35.129C768.764 35.129 767.603 35.5855 766.897 36.5342C764.776 39.3803 762.598 44.1765 764.683 46.4505C767.044 48.8979 768.596 47.376 769.203 45.7699C768.847 46.0282 768.401 46.171 767.94 46.171C767.405 46.171 766.892 45.9796 766.514 45.6388C766.136 45.298 765.923 44.8359 765.923 44.354H773.988ZM762.235 30.1563H756.619L761.045 33.662C762.019 34.4333 763.443 34.1868 764.045 33.1423C764.806 31.8235 763.796 30.1563 762.235 30.1563ZM777.676 30.1563H783.292L778.866 33.662C777.892 34.4333 776.468 34.1868 775.866 33.1423C775.105 31.8235 776.115 30.1563 777.676 30.1563Z" fill="#2A2B2A"/>
<path d="M800.528 50.8126H805.504V32.0443H800.528V50.8126ZM800.528 29.1175H805.504V24.6541H800.528V29.1175Z" fill="#111110"/>
<path d="M808.71 56.9589H813.685V48.6906H813.759C814.82 50.3004 816.539 51.3614 819.173 51.3614C824.003 51.3614 827.295 47.5199 827.295 41.4467C827.295 35.5931 824.112 31.5321 819.137 31.5321C816.576 31.5321 814.82 32.7394 813.612 34.3858H813.503V32.0443H808.71V56.9589ZM818.112 47.2272C815.149 47.2272 813.576 44.9955 813.576 41.5931C813.576 38.2272 814.82 35.5565 817.929 35.5565C821.003 35.5565 822.246 38.0443 822.246 41.5931C822.246 45.1419 820.637 47.2272 818.112 47.2272Z" fill="#111110"/>
<path d="M837.221 51.3614C841.904 51.3614 845.123 49.0931 845.123 45.3248C845.123 40.9345 841.648 40.0565 838.501 39.398C835.831 38.8492 833.343 38.7028 833.343 37.0931C833.343 35.7394 834.623 35.0077 836.562 35.0077C838.684 35.0077 839.965 35.7394 840.184 37.7516H844.684C844.318 33.9833 841.574 31.5321 836.635 31.5321C832.355 31.5321 828.989 33.4711 828.989 37.5321C828.989 41.6297 832.282 42.5443 835.648 43.2028C838.209 43.715 840.587 43.898 840.587 45.6906C840.587 47.0077 839.343 47.8492 837.148 47.8492C834.916 47.8492 833.379 46.898 833.05 44.7394H828.44C828.733 48.7272 831.77 51.3614 837.221 51.3614Z" fill="#111110"/>
<path d="M864.015 50.8126V32.0443H859.039V42.8736C859.039 45.3614 857.612 47.1175 855.271 47.1175C853.149 47.1175 852.161 45.9102 852.161 43.715V32.0443H847.222V44.5565C847.222 48.6541 849.564 51.3248 853.734 51.3248C856.368 51.3248 857.832 50.337 859.112 48.6175H859.222V50.8126H864.015Z" fill="#111110"/>
<path d="M867.233 50.8126H872.209V39.9102C872.209 37.4223 873.562 35.8126 875.574 35.8126C877.404 35.8126 878.465 36.9102 878.465 39.0321V50.8126H883.44V39.9102C883.44 37.4223 884.721 35.8126 886.806 35.8126C888.635 35.8126 889.696 36.9102 889.696 39.0321V50.8126H894.672V38.1906C894.672 34.0931 892.44 31.5321 888.489 31.5321C886.111 31.5321 884.135 32.776 882.855 34.8248H882.782C881.867 32.8492 879.965 31.5321 877.587 31.5321C874.989 31.5321 873.16 32.8492 872.135 34.5687H872.026V32.0443H867.233V50.8126Z" fill="#111110"/>
<path d="M674.911 50.8126H679.887V24.6541H674.911V50.8126Z" fill="#111110"/>
<path d="M692.053 51.3614C697.87 51.3614 701.858 47.0443 701.858 41.4467C701.858 35.8492 697.87 31.5321 692.053 31.5321C686.236 31.5321 682.248 35.8492 682.248 41.4467C682.248 47.0443 686.236 51.3614 692.053 51.3614ZM692.053 47.5565C688.98 47.5565 687.297 45.1053 687.297 41.4467C687.297 37.7882 688.98 35.3004 692.053 35.3004C695.089 35.3004 696.809 37.7882 696.809 41.4467C696.809 45.1053 695.089 47.5565 692.053 47.5565Z" fill="#111110"/>
<path d="M712.439 57.215C715.219 57.215 717.634 56.5565 719.207 55.0931C720.597 53.8126 721.439 52.0199 721.439 49.3858V32.0443H716.646V34.0199H716.573C715.439 32.4467 713.719 31.5321 711.378 31.5321C706.622 31.5321 703.256 35.1175 703.256 40.715C703.256 46.3858 707.354 49.6784 711.524 49.6784C713.902 49.6784 715.329 48.7272 716.427 47.4833H716.536V49.5321C716.536 52.0931 715.183 53.4467 712.366 53.4467C710.061 53.4467 709 52.5321 708.597 51.3614H703.658C704.171 55.0199 707.317 57.215 712.439 57.215ZM712.366 45.6906C709.805 45.6906 708.122 43.8248 708.122 40.6419C708.122 37.4955 709.805 35.5199 712.329 35.5199C715.329 35.5199 716.793 37.8614 716.793 40.6053C716.793 43.3858 715.512 45.6906 712.366 45.6906Z" fill="#111110"/>
<path d="M733.533 51.3614C739.35 51.3614 743.338 47.0443 743.338 41.4467C743.338 35.8492 739.35 31.5321 733.533 31.5321C727.716 31.5321 723.728 35.8492 723.728 41.4467C723.728 47.0443 727.716 51.3614 733.533 51.3614ZM733.533 47.5565C730.46 47.5565 728.777 45.1053 728.777 41.4467C728.777 37.7882 730.46 35.3004 733.533 35.3004C736.569 35.3004 738.289 37.7882 738.289 41.4467C738.289 45.1053 736.569 47.5565 733.533 47.5565Z" fill="#111110"/>
<path d="M894.448 27.9468C894.448 27.1049 895.129 26.4224 895.972 26.4224H899.021C899.862 26.4224 900.545 27.1049 900.545 27.9468C900.545 28.7886 899.862 29.4712 899.021 29.4712H895.972C895.129 29.4712 894.448 28.7886 894.448 27.9468Z" fill="#111110"/>
</g>
<g opacity="0.5">
<path d="M990.062 53.0814L990.063 28.3605L1002.42 35.2274V46.2831L1012.31 51.8453L1022.2 46.2831V35.2274L1034.56 28.3605V53.0814L1012.31 65.4417L990.062 53.0814Z" fill="#111112"/>
<path fill-rule="evenodd" clip-rule="evenodd" d="M996.243 31.7939L990.062 28.3604L1012.31 16L1034.56 28.3604L1028.38 31.7939V49.9912L1012.31 59.2616L996.243 49.9912L996.243 31.7939ZM1027.71 32.1659L1022.2 35.2274V35.1587L1012.31 29.5964L1002.42 35.1587V35.2274L996.912 32.1659V49.6109L1012.31 58.495L1027.71 49.6109V32.1659Z" fill="url(#paint0_linear_155_245)"/>
<path d="M1046.41 51.1276V30.3621H1050.32V47.5677H1059.82V51.1276H1046.41Z" fill="#111112"/>
<path d="M1068.27 51.5429C1066.81 51.5429 1065.49 51.2463 1064.32 50.6529C1063.16 50.0596 1062.24 49.1993 1061.57 48.0721C1060.89 46.9449 1060.56 45.5901 1060.56 44.008V43.5333C1060.56 41.9512 1060.89 40.5964 1061.57 39.4692C1062.24 38.342 1063.16 37.4817 1064.32 36.8884C1065.49 36.295 1066.81 35.9984 1068.27 35.9984C1069.73 35.9984 1071.05 36.295 1072.21 36.8884C1073.38 37.4817 1074.3 38.342 1074.97 39.4692C1075.65 40.5964 1075.98 41.9512 1075.98 43.5333V44.008C1075.98 45.5901 1075.65 46.9449 1074.97 48.0721C1074.3 49.1993 1073.38 50.0596 1072.21 50.6529C1071.05 51.2463 1069.73 51.5429 1068.27 51.5429ZM1068.27 48.2204C1069.42 48.2204 1070.37 47.8546 1071.12 47.1228C1071.87 46.3713 1072.24 45.3033 1072.24 43.9189V43.6224C1072.24 42.238 1071.87 41.1799 1071.12 40.4482C1070.39 39.6967 1069.44 39.3209 1068.27 39.3209C1067.12 39.3209 1066.17 39.6967 1065.42 40.4482C1064.67 41.1799 1064.29 42.238 1064.29 43.6224V43.9189C1064.29 45.3033 1064.67 46.3713 1065.42 47.1228C1066.17 47.8546 1067.12 48.2204 1068.27 48.2204Z" fill="#111112"/>
<path d="M1077.39 43.83V43.3554C1077.39 41.8128 1077.69 40.4976 1078.31 39.4099C1078.92 38.3024 1079.73 37.4618 1080.74 36.8884C1081.77 36.295 1082.88 35.9984 1084.09 35.9984C1085.43 35.9984 1086.45 36.2358 1087.15 36.7104C1087.84 37.185 1088.34 37.6795 1088.66 38.1937H1089.19V36.4137H1092.87V53.7381C1092.87 54.7467 1092.57 55.5476 1091.98 56.141C1091.39 56.7541 1090.6 57.0607 1089.61 57.0607H1079.76V53.7975H1088.3C1088.86 53.7975 1089.13 53.5008 1089.13 52.9075V49.0807H1088.6C1088.4 49.3971 1088.12 49.7234 1087.77 50.0596C1087.41 50.376 1086.94 50.643 1086.34 50.8607C1085.75 51.0782 1085 51.187 1084.09 51.187C1082.88 51.187 1081.77 50.9001 1080.74 50.3266C1079.73 49.7333 1078.92 48.8928 1078.31 47.8051C1077.69 46.6976 1077.39 45.3726 1077.39 43.83ZM1085.16 47.9238C1086.3 47.9238 1087.26 47.5579 1088.04 46.8262C1088.81 46.0945 1089.19 45.066 1089.19 43.741V43.4443C1089.19 42.0995 1088.81 41.0712 1088.04 40.3592C1087.28 39.6275 1086.32 39.2616 1085.16 39.2616C1084.01 39.2616 1083.05 39.6275 1082.28 40.3592C1081.51 41.0712 1081.12 42.0995 1081.12 43.4443V43.741C1081.12 45.066 1081.51 46.0945 1082.28 46.8262C1083.05 47.5579 1084.01 47.9238 1085.16 47.9238Z" fill="#111112"/>
<path d="M1102.68 51.5429C1101.22 51.5429 1099.9 51.2463 1098.74 50.6529C1097.57 50.0596 1096.65 49.1993 1095.98 48.0721C1095.3 46.9449 1094.97 45.5901 1094.97 44.008V43.5333C1094.97 41.9512 1095.3 40.5964 1095.98 39.4692C1096.65 38.342 1097.57 37.4817 1098.74 36.8884C1099.9 36.295 1101.22 35.9984 1102.68 35.9984C1104.14 35.9984 1105.46 36.295 1106.63 36.8884C1107.79 37.4817 1108.71 38.342 1109.39 39.4692C1110.06 40.5964 1110.39 41.9512 1110.39 43.5333V44.008C1110.39 45.5901 1110.06 46.9449 1109.39 48.0721C1108.71 49.1993 1107.79 50.0596 1106.63 50.6529C1105.46 51.2463 1104.14 51.5429 1102.68 51.5429ZM1102.68 48.2204C1103.83 48.2204 1104.78 47.8546 1105.53 47.1228C1106.28 46.3713 1106.66 45.3033 1106.66 43.9189V43.6224C1106.66 42.238 1106.28 41.1799 1105.53 40.4482C1104.8 39.6967 1103.85 39.3209 1102.68 39.3209C1101.53 39.3209 1100.58 39.6967 1099.83 40.4482C1099.08 41.1799 1098.71 42.238 1098.71 43.6224V43.9189C1098.71 45.3033 1099.08 46.3713 1099.83 47.1228C1100.58 47.8546 1101.53 48.2204 1102.68 48.2204Z" fill="#111112"/>
<path d="M1112.51 51.1276V36.4136H1116.25V51.1276H1112.51ZM1114.38 34.6931C1113.71 34.6931 1113.13 34.4756 1112.66 34.0405C1112.2 33.6053 1111.98 33.0318 1111.98 32.3199C1111.98 31.608 1112.2 31.0344 1112.66 30.5993C1113.13 30.1643 1113.71 29.9467 1114.38 29.9467C1115.07 29.9467 1115.64 30.1643 1116.1 30.5993C1116.55 31.0344 1116.78 31.608 1116.78 32.3199C1116.78 33.0318 1116.55 33.6053 1116.1 34.0405C1115.64 34.4756 1115.07 34.6931 1114.38 34.6931Z" fill="#111112"/>
<path d="M1119.05 57.0607V36.4137H1122.73V38.1937H1123.27C1123.6 37.6201 1124.13 37.1158 1124.84 36.6807C1125.55 36.2258 1126.57 35.9984 1127.89 35.9984C1129.08 35.9984 1130.18 36.295 1131.19 36.8884C1132.2 37.4618 1133.01 38.3122 1133.62 39.4396C1134.23 40.5668 1134.54 41.9314 1134.54 43.5333V44.008C1134.54 45.6099 1134.23 46.9745 1133.62 48.1017C1133.01 49.2291 1132.2 50.0893 1131.19 50.6826C1130.18 51.2562 1129.08 51.5429 1127.89 51.5429C1127 51.5429 1126.25 51.4341 1125.64 51.2166C1125.05 51.0188 1124.56 50.7617 1124.19 50.4453C1123.83 50.1091 1123.54 49.7729 1123.33 49.4367H1122.79V57.0607H1119.05ZM1126.77 48.2797C1127.93 48.2797 1128.89 47.9138 1129.64 47.1821C1130.42 46.4307 1130.8 45.3429 1130.8 43.9189V43.6224C1130.8 42.1984 1130.42 41.1205 1129.64 40.3888C1128.87 39.6374 1127.91 39.2616 1126.77 39.2616C1125.62 39.2616 1124.66 39.6374 1123.89 40.3888C1123.12 41.1205 1122.73 42.1984 1122.73 43.6224V43.9189C1122.73 45.3429 1123.12 46.4307 1123.89 47.1821C1124.66 47.9138 1125.62 48.2797 1126.77 48.2797Z" fill="#111112"/>
<path d="M1142.75 51.5429C1140.83 51.5429 1139.26 51.1276 1138.03 50.297C1136.8 49.4663 1136.06 48.2797 1135.8 46.7371L1139.25 45.8472C1139.39 46.5393 1139.61 47.0833 1139.93 47.4788C1140.27 47.8743 1140.67 48.161 1141.15 48.3391C1141.64 48.4972 1142.17 48.5764 1142.75 48.5764C1143.62 48.5764 1144.26 48.428 1144.68 48.1314C1145.09 47.815 1145.3 47.4293 1145.3 46.9745C1145.3 46.5196 1145.1 46.1735 1144.7 45.9362C1144.31 45.6791 1143.68 45.4714 1142.81 45.3133L1141.98 45.1649C1140.95 44.9671 1140.01 44.7001 1139.16 44.3639C1138.31 44.008 1137.62 43.5234 1137.11 42.9104C1136.6 42.2972 1136.34 41.5062 1136.34 40.5371C1136.34 39.0737 1136.87 37.9563 1137.94 37.185C1139.01 36.3939 1140.41 35.9984 1142.15 35.9984C1143.8 35.9984 1145.16 36.3643 1146.25 37.096C1147.34 37.8278 1148.05 38.787 1148.38 39.9735L1144.91 41.0414C1144.75 40.29 1144.43 39.7559 1143.93 39.4396C1143.46 39.1232 1142.87 38.9649 1142.15 38.9649C1141.44 38.9649 1140.9 39.0934 1140.52 39.3505C1140.15 39.5879 1139.96 39.9241 1139.96 40.3592C1139.96 40.8338 1140.16 41.1897 1140.55 41.4271C1140.95 41.6446 1141.48 41.8128 1142.15 41.9314L1142.98 42.0797C1144.09 42.2775 1145.09 42.5445 1145.98 42.8807C1146.89 43.1971 1147.6 43.6618 1148.12 44.275C1148.65 44.8683 1148.92 45.6791 1148.92 46.7075C1148.92 48.2501 1148.35 49.4466 1147.23 50.297C1146.12 51.1276 1144.63 51.5429 1142.75 51.5429Z" fill="#111112"/>
<path d="M1156.46 51.3649C1155.32 51.3649 1154.31 51.1078 1153.44 50.5937C1152.59 50.0596 1151.93 49.3279 1151.45 48.3984C1150.98 47.469 1150.74 46.4009 1150.74 45.1946V36.4137H1154.48V44.8979C1154.48 46.0054 1154.74 46.8361 1155.28 47.3897C1155.83 47.9436 1156.61 48.2204 1157.62 48.2204C1158.77 48.2204 1159.66 47.8446 1160.29 47.0932C1160.92 46.3219 1161.24 45.254 1161.24 43.8894V36.4137H1164.98V51.1276H1161.3V49.1994H1160.77C1160.53 49.6938 1160.08 50.1783 1159.43 50.6529C1158.78 51.1276 1157.79 51.3649 1156.46 51.3649Z" fill="#111112"/>
<path d="M1167.8 51.1276V36.4136H1171.48V38.0156H1172.02C1172.27 37.5211 1172.7 37.096 1173.29 36.7399C1173.88 36.3643 1174.67 36.1764 1175.64 36.1764C1176.68 36.1764 1177.52 36.384 1178.16 36.7993C1178.79 37.1948 1179.27 37.7189 1179.61 38.3715H1180.14C1180.48 37.7388 1180.95 37.2147 1181.57 36.7993C1182.18 36.384 1183.05 36.1764 1184.18 36.1764C1185.09 36.1764 1185.91 36.3742 1186.64 36.7697C1187.39 37.1453 1187.99 37.7288 1188.42 38.5199C1188.87 39.2911 1189.1 40.2701 1189.1 41.4568V51.1276H1185.36V41.7238C1185.36 40.9128 1185.16 40.3097 1184.74 39.9142C1184.33 39.4989 1183.74 39.2911 1182.99 39.2911C1182.14 39.2911 1181.48 39.5681 1181 40.1218C1180.55 40.6557 1180.32 41.427 1180.32 42.4357V51.1276H1176.58V41.7238C1176.58 40.9128 1176.38 40.3097 1175.96 39.9142C1175.55 39.4989 1174.96 39.2911 1174.21 39.2911C1173.36 39.2911 1172.7 39.5681 1172.22 40.1218C1171.77 40.6557 1171.54 41.427 1171.54 42.4357V51.1276H1167.8Z" fill="#111112"/>
</g>
<defs>
<linearGradient id="paint0_linear_155_245" x1="996.243" y1="25.6137" x2="1029.62" y2="25.6137" gradientUnits="userSpaceOnUse">
<stop stop-color="#111111"/>
<stop offset="0.307292" stop-color="#282829"/>
<stop offset="0.604167" stop-color="#181718"/>
<stop offset="1" stop-color="#181617"/>
</linearGradient>
<clipPath id="clip0_155_245">
<rect width="275" height="50" fill="white" transform="translate(0 16)"/>
</clipPath>
<clipPath id="clip1_155_245">
<rect width="226.829" height="50" fill="white" transform="translate(674.077 16)"/>
</clipPath>
</defs>
</svg>
